<svg xmlns="http://www.w3.org/2000/svg" width="901.78" height="186.8" viewBox="0 0 901.78 186.8">
  <defs>
    <style>
      .cls-1 {
        fill: #e11d48;
      }
    </style>
  </defs>
  <g id="Layer_2" data-name="Layer 2">
    <g id="Layer_1-2" data-name="Layer 1">
      <g>
        <path class="cls-1" d="M0,93.4c0-32,21.6-52.8,52.6-52.8,31.4,0,53.4,21.6,53.4,53,0,33.8-25.2,51-49.2,51-14.2,0-26-6-33-17v56.6H0Zm82-.8c0-17.4-11.8-29.8-29.2-29.8s-29,12.4-29,29.8,11.6,29.8,29,29.8S82,110,82,92.6Z"/>
        <path class="cls-1" d="M114.74,92.6c0-30,22-52,53.2-52s53.2,22,53.2,52-22,52-53.2,52S114.74,122.6,114.74,92.6Zm82.2,0c0-17.4-11.6-29.8-29-29.8s-29.2,12.4-29.2,29.8,11.8,29.8,29.2,29.8S196.94,110,196.94,92.6Z"/>
        <path class="cls-1" d="M234.34,84.6c0-29.8,17.6-44,43.4-44s43.2,14.2,43.2,44.4v.6h-23.6v-1c0-16-8-21.8-19.6-21.8s-19.6,5.8-19.6,21.8V142h-23.8Z"/>
        <path class="cls-1" d="M330.1,104V8.2h23.8v35h51V64.8h-51V104c0,13.2,6.79,18.4,16.59,18.4s16.6-5,16.6-18.4v-2.6h23.8V104c0,27.4-16.4,40.6-40.4,40.6S330.1,131.4,330.1,104Z"/>
        <path class="cls-1" d="M423.49,84.6c0-29.8,17.6-44,43.4-44s43.2,14.2,43.2,44.4v.6h-23.6v-1c0-16-8-21.8-19.6-21.8s-19.6,5.8-19.6,21.8V142h-23.8Z"/>
        <path class="cls-1" d="M517.35,93.6c0-31.4,22-53,53.4-53,31,0,52.6,21,52.6,52.8V142h-21.8V122.6c-6,14.6-19.4,22-35,22C542.55,144.6,517.35,127.4,517.35,93.6Zm82.2-1c0-17.4-11.6-29.8-29-29.8s-29.2,12.4-29.2,29.8,11.8,29.8,29.2,29.8S599.55,110,599.55,92.6Z"/>
        <path class="cls-1" d="M640.23,152.8H664c4,9.2,11.8,13.4,23.8,13.4,16.2,0,25.4-7.8,25.4-27V126.8c-6,10.8-16.4,16.6-29.4,16.6-22.8,0-44.4-14.8-44.4-50V43.2h23.8V93.4c0,18.8,10,27.8,25,27.8,14.6,0,25-9.4,25-27.8V43.2H737v95.4c0,34.4-21.8,48.2-49.2,48.2C664.83,186.8,645.83,176.2,640.23,152.8Z"/>
        <path class="cls-1" d="M752.41,93.6c0-31.4,22-53,53.4-53,31,0,52.6,21,52.6,52.8V142h-21.8V122.6c-6,14.6-19.4,22-35,22C777.61,144.6,752.41,127.4,752.41,93.6Zm82.2-1c0-17.4-11.6-29.8-29-29.8s-29.2,12.4-29.2,29.8,11.8,29.8,29.2,29.8S834.61,110,834.61,92.6Z"/>
        <path class="cls-1" d="M878,0h23.79V142H878Z"/>
      </g>
    </g>
  </g>
</svg>
