<svg xmlns="http://www.w3.org/2000/svg" width="270.68" height="270.68" viewBox="0 0 270.68 270.68">
  <defs>
    <style>
      .cls-1 {
        fill: #e11d48;
      }

      .cls-2 {
        fill: #f4f4f5;
      }
    </style>
  </defs>
  <g id="Layer_2" data-name="Layer 2">
    <g id="Layer_1-2" data-name="Layer 1">
      <rect class="cls-1" width="270.68" height="270.68" rx="3.04"/>
      <g>
        <path class="cls-2" d="M36.34,136.34c0-31.4,22-53,53.4-53,31,0,52.6,21,52.6,52.8v48.6h-21.8v-19.4c-6,14.6-19.4,22-35,22C61.54,187.34,36.34,170.14,36.34,136.34Zm82.2-1c0-17.4-11.6-29.8-29-29.8s-29.2,12.4-29.2,29.8,11.8,29.8,29.2,29.8S118.54,152.74,118.54,135.34Z"/>
        <path class="cls-2" d="M147.74,127.34c0-29.8,17.6-44,43.4-44s43.2,14.2,43.2,44.4v.6h-23.6v-1c0-16-8-21.8-19.6-21.8s-19.6,5.8-19.6,21.8v57.4h-23.8Z"/>
      </g>
    </g>
  </g>
</svg>
